<svg xmlns="http://www.w3.org/2000/svg" xmlns:svg="http://www.w3.org/2000/svg" viewBox="0 0 48 60" version="1.1" xml:space="preserve" style="" x="0px" y="0px" clip-rule="evenodd" fill-rule="evenodd" stroke-linecap="round" stroke-linejoin="round" stroke-miterlimit="1.5"><g style="" transform="translate(-360)" display="inline"><path style="color:#000000;" d="m 365.95508,3.5957031 c -0.0899,0.00165 -0.17976,0.01089 -0.26758,0.025391 -1.05386,0.17401 -1.92743,1.2433076 -1.62305,2.3847656 l 4.34766,16.2988283 c 0.2961,1.110363 0.2961,2.280262 0,3.390624 l -4.34766,16.298829 c -0.40584,1.521943 1.28332,2.916529 2.70117,2.230468 l 38.11719,-18.445312 c 1.42843,-0.691154 1.42843,-2.86744 0,-3.558594 L 366.76562,3.7753906 c -0.26584,-0.1286362 -0.541,-0.1846471 -0.81054,-0.1796875 z m 0.084,2.0507813 L 401.9043,23 h -31.33203 c -0.0478,-0.406471 -0.1223,-0.810656 -0.22852,-1.208984 z" fill="#000000"/></g><text x="0" y="63" fill="#000000" font-size="5px" font-weight="bold" font-family="'Helvetica Neue', Helvetica, Arial-Unicode, Arial, Sans-serif">Created by Alfan Zulkarnain</text><text x="0" y="68" fill="#000000" font-size="5px" font-weight="bold" font-family="'Helvetica Neue', Helvetica, Arial-Unicode, Arial, Sans-serif">from the Noun Project</text></svg>